<svg width="89" height="14" viewBox="0 0 89 14" fill="none" xmlns="http://www.w3.org/2000/svg">
<rect x="-0.00012207" width="88.3841" height="14" rx="7" fill="#FFFDFA"/>
<path d="M3.31006 5.65308L2.99988 5.78458C2.99981 5.8246 3.00765 5.86423 3.02296 5.9012C3.03827 5.93817 3.06075 5.97174 3.0891 5.99999L7.97786 10.8717C8.03491 10.9285 8.13291 10.9597 8.19045 10.96C8.2489 10.9602 8.34887 10.9295 8.40691 10.8716L13.2948 5.99687C13.3231 5.96866 13.3455 5.93515 13.3608 5.89826C13.3761 5.86137 13.384 5.82182 13.384 5.78188L13.1143 5.6531H9.86999L8.05014 6.24055L6.51101 5.6531L3.31006 5.65308Z" fill="#FFB739"/>
<path d="M13.3839 5.7819C13.3839 5.86029 13.3537 5.93809 13.2948 5.99683L8.40688 10.8716C8.34936 10.9291 8.25028 10.9599 8.19196 10.9599V6.19473L9.87002 5.65308H13.1143L13.3839 5.7819Z" fill="#FF9441"/>
<path d="M6.51068 5.65308L8.19162 10.9599L9.86966 5.65308H6.51068Z" fill="#FF9441"/>
<path d="M9.87 5.65308L8.19196 10.9599V5.65308H9.87Z" fill="#FF7149"/>
<path d="M13.333 5.61285L11.7059 3.17497C11.6834 3.14146 11.6546 3.11275 11.6209 3.09052L11.4735 3.16134L8.47339 3.18004L8.19191 3.03979L7.96443 3.1832L4.97113 3.20186L4.76225 3.09082C4.72876 3.11305 4.70003 3.14171 4.67772 3.17513L3.05072 5.61608C3.01749 5.66592 2.9998 5.72451 2.99988 5.78441L13.3839 5.78167C13.3841 5.72159 13.3663 5.66283 13.333 5.61285Z" fill="#FFD17E"/>
<path d="M13.3833 5.78173C13.0062 5.78173 10.5972 5.78255 8.19138 5.78315V3.03979L8.47295 3.17996L11.4729 3.16132L11.6204 3.09042C11.654 3.11272 11.6828 3.14142 11.7053 3.17489L13.3325 5.61277C13.3659 5.66277 13.3836 5.72161 13.3833 5.78173ZM4.92999 3.03979C4.86923 3.03979 4.81094 3.05807 4.76178 3.09078L6.5639 5.78348H6.5641L8.19128 3.03979H4.92999Z" fill="#FFB739"/>
<path d="M9.81992 5.78261L11.621 3.09046C11.5713 3.05745 11.513 3.03982 11.4533 3.03979H8.19196L9.81862 5.78263H9.81992V5.78261Z" fill="#FF9441"/>
<path d="M20.009 8.27L19.129 5.865C19.0856 5.75833 19.0406 5.63167 18.994 5.485C18.9473 5.33833 18.9006 5.18 18.854 5.01C18.8106 5.18 18.7656 5.34 18.719 5.49C18.6723 5.63667 18.6273 5.765 18.584 5.875L17.709 8.27H20.009ZM22.384 11H21.344C21.2273 11 21.1323 10.9717 21.059 10.915C20.9856 10.855 20.9306 10.7817 20.894 10.695L20.354 9.22H17.359L16.819 10.695C16.7923 10.7717 16.7406 10.8417 16.664 10.905C16.5873 10.9683 16.4923 11 16.379 11H15.329L18.174 3.77H19.544L22.384 11ZM30.9723 3.77V11H29.7873V6.33C29.7873 6.14333 29.7973 5.94167 29.8173 5.725L27.6323 9.83C27.529 10.0267 27.3707 10.125 27.1573 10.125H26.9673C26.754 10.125 26.5957 10.0267 26.4923 9.83L24.2823 5.71C24.2923 5.82 24.3007 5.92833 24.3073 6.035C24.314 6.14167 24.3173 6.24 24.3173 6.33V11H23.1323V3.77H24.1473C24.2073 3.77 24.259 3.77167 24.3023 3.775C24.3457 3.77833 24.384 3.78667 24.4173 3.8C24.454 3.81333 24.4857 3.835 24.5123 3.865C24.5423 3.895 24.5707 3.935 24.5973 3.985L26.7623 8C26.819 8.10667 26.8707 8.21667 26.9173 8.33C26.9673 8.44333 27.0157 8.56 27.0623 8.68C27.109 8.55667 27.1573 8.43833 27.2073 8.325C27.2573 8.20833 27.3107 8.09667 27.3673 7.99L29.5023 3.985C29.529 3.935 29.5573 3.895 29.5873 3.865C29.6173 3.835 29.649 3.81333 29.6823 3.8C29.719 3.78667 29.759 3.77833 29.8023 3.775C29.8457 3.77167 29.8973 3.77 29.9573 3.77H30.9723ZM35.2905 9.95C35.5405 9.95 35.7505 9.92 35.9205 9.86C36.0905 9.8 36.2255 9.72 36.3255 9.62C36.4288 9.52 36.5021 9.40333 36.5455 9.27C36.5921 9.13667 36.6155 8.995 36.6155 8.845C36.6155 8.68833 36.5905 8.54833 36.5405 8.425C36.4905 8.29833 36.4121 8.19167 36.3055 8.105C36.1988 8.015 36.0605 7.94667 35.8905 7.9C35.7238 7.85333 35.5221 7.83 35.2855 7.83H33.9305V9.95H35.2905ZM33.9305 4.81V6.9H35.0005C35.4605 6.9 35.8071 6.81667 36.0405 6.65C36.2771 6.48333 36.3955 6.21833 36.3955 5.855C36.3955 5.47833 36.2888 5.21 36.0755 5.05C35.8621 4.89 35.5288 4.81 35.0755 4.81H33.9305ZM35.0755 3.77C35.5488 3.77 35.9538 3.815 36.2905 3.905C36.6271 3.995 36.9021 4.12333 37.1155 4.29C37.3321 4.45667 37.4905 4.65833 37.5905 4.895C37.6905 5.13167 37.7405 5.39833 37.7405 5.695C37.7405 5.865 37.7155 6.02833 37.6655 6.185C37.6155 6.33833 37.5371 6.48333 37.4305 6.62C37.3271 6.75333 37.1938 6.875 37.0305 6.985C36.8705 7.095 36.6788 7.18833 36.4555 7.265C37.4488 7.48833 37.9455 8.025 37.9455 8.875C37.9455 9.18167 37.8871 9.465 37.7705 9.725C37.6538 9.985 37.4838 10.21 37.2605 10.4C37.0371 10.5867 36.7621 10.7333 36.4355 10.84C36.1088 10.9467 35.7355 11 35.3155 11H32.5855V3.77H35.0755ZM42.8703 8.27L41.9903 5.865C41.947 5.75833 41.902 5.63167 41.8553 5.485C41.8086 5.33833 41.762 5.18 41.7153 5.01C41.672 5.18 41.627 5.34 41.5803 5.49C41.5336 5.63667 41.4886 5.765 41.4453 5.875L40.5703 8.27H42.8703ZM45.2453 11H44.2053C44.0886 11 43.9936 10.9717 43.9203 10.915C43.847 10.855 43.792 10.7817 43.7553 10.695L43.2153 9.22H40.2203L39.6803 10.695C39.6536 10.7717 39.602 10.8417 39.5253 10.905C39.4486 10.9683 39.3536 11 39.2403 11H38.1903L41.0353 3.77H42.4053L45.2453 11ZM49.8437 5.085C49.8037 5.155 49.7603 5.20667 49.7137 5.24C49.6703 5.27 49.6153 5.285 49.5487 5.285C49.4787 5.285 49.402 5.26 49.3187 5.21C49.2387 5.15667 49.142 5.09833 49.0287 5.035C48.9153 4.97167 48.782 4.915 48.6287 4.865C48.4787 4.81167 48.3003 4.785 48.0937 4.785C47.907 4.785 47.7437 4.80833 47.6037 4.855C47.4637 4.89833 47.3453 4.96 47.2487 5.04C47.1553 5.12 47.0853 5.21667 47.0387 5.33C46.992 5.44 46.9687 5.56167 46.9687 5.695C46.9687 5.865 47.0153 6.00667 47.1087 6.12C47.2053 6.23333 47.332 6.33 47.4887 6.41C47.6453 6.49 47.8237 6.56167 48.0237 6.625C48.2237 6.68833 48.4287 6.75667 48.6387 6.83C48.8487 6.9 49.0537 6.98333 49.2537 7.08C49.4537 7.17333 49.632 7.29333 49.7887 7.44C49.9453 7.58333 50.0703 7.76 50.1637 7.97C50.2603 8.18 50.3087 8.435 50.3087 8.735C50.3087 9.06167 50.252 9.36833 50.1387 9.655C50.0287 9.93833 49.8653 10.1867 49.6487 10.4C49.4353 10.61 49.1737 10.7767 48.8637 10.9C48.5537 11.02 48.1987 11.08 47.7987 11.08C47.5687 11.08 47.342 11.0567 47.1187 11.01C46.8953 10.9667 46.6803 10.9033 46.4737 10.82C46.2703 10.7367 46.0787 10.6367 45.8987 10.52C45.7187 10.4033 45.5587 10.2733 45.4187 10.13L45.8137 9.485C45.847 9.43833 45.8903 9.4 45.9437 9.37C45.997 9.33667 46.0537 9.32 46.1137 9.32C46.197 9.32 46.287 9.355 46.3837 9.425C46.4803 9.49167 46.5953 9.56667 46.7287 9.65C46.862 9.73333 47.017 9.81 47.1937 9.88C47.3737 9.94667 47.5887 9.98 47.8387 9.98C48.222 9.98 48.5187 9.89 48.7287 9.71C48.9387 9.52667 49.0437 9.265 49.0437 8.925C49.0437 8.735 48.9953 8.58 48.8987 8.46C48.8053 8.34 48.6803 8.24 48.5237 8.16C48.367 8.07667 48.1887 8.00667 47.9887 7.95C47.7887 7.89333 47.5853 7.83167 47.3787 7.765C47.172 7.69833 46.9687 7.61833 46.7687 7.525C46.5687 7.43167 46.3903 7.31 46.2337 7.16C46.077 7.01 45.9503 6.82333 45.8537 6.6C45.7603 6.37333 45.7137 6.095 45.7137 5.765C45.7137 5.50167 45.7653 5.245 45.8687 4.995C45.9753 4.745 46.1287 4.52333 46.3287 4.33C46.5287 4.13667 46.7753 3.98167 47.0687 3.865C47.362 3.74833 47.6987 3.69 48.0787 3.69C48.5053 3.69 48.8987 3.75667 49.2587 3.89C49.6187 4.02333 49.9253 4.21 50.1787 4.45L49.8437 5.085ZM55.3319 5.085C55.2919 5.155 55.2486 5.20667 55.2019 5.24C55.1586 5.27 55.1036 5.285 55.0369 5.285C54.9669 5.285 54.8903 5.26 54.8069 5.21C54.7269 5.15667 54.6303 5.09833 54.5169 5.035C54.4036 4.97167 54.2703 4.915 54.1169 4.865C53.9669 4.81167 53.7886 4.785 53.5819 4.785C53.3953 4.785 53.2319 4.80833 53.0919 4.855C52.9519 4.89833 52.8336 4.96 52.7369 5.04C52.6436 5.12 52.5736 5.21667 52.5269 5.33C52.4803 5.44 52.4569 5.56167 52.4569 5.695C52.4569 5.865 52.5036 6.00667 52.5969 6.12C52.6936 6.23333 52.8203 6.33 52.9769 6.41C53.1336 6.49 53.3119 6.56167 53.5119 6.625C53.7119 6.68833 53.9169 6.75667 54.1269 6.83C54.3369 6.9 54.5419 6.98333 54.7419 7.08C54.9419 7.17333 55.1203 7.29333 55.2769 7.44C55.4336 7.58333 55.5586 7.76 55.6519 7.97C55.7486 8.18 55.7969 8.435 55.7969 8.735C55.7969 9.06167 55.7403 9.36833 55.6269 9.655C55.5169 9.93833 55.3536 10.1867 55.1369 10.4C54.9236 10.61 54.6619 10.7767 54.3519 10.9C54.0419 11.02 53.6869 11.08 53.2869 11.08C53.0569 11.08 52.8303 11.0567 52.6069 11.01C52.3836 10.9667 52.1686 10.9033 51.9619 10.82C51.7586 10.7367 51.5669 10.6367 51.3869 10.52C51.2069 10.4033 51.0469 10.2733 50.9069 10.13L51.3019 9.485C51.3353 9.43833 51.3786 9.4 51.4319 9.37C51.4853 9.33667 51.5419 9.32 51.6019 9.32C51.6853 9.32 51.7753 9.355 51.8719 9.425C51.9686 9.49167 52.0836 9.56667 52.2169 9.65C52.3503 9.73333 52.5053 9.81 52.6819 9.88C52.8619 9.94667 53.0769 9.98 53.3269 9.98C53.7103 9.98 54.0069 9.89 54.2169 9.71C54.4269 9.52667 54.5319 9.265 54.5319 8.925C54.5319 8.735 54.4836 8.58 54.3869 8.46C54.2936 8.34 54.1686 8.24 54.0119 8.16C53.8553 8.07667 53.6769 8.00667 53.4769 7.95C53.2769 7.89333 53.0736 7.83167 52.8669 7.765C52.6603 7.69833 52.4569 7.61833 52.2569 7.525C52.0569 7.43167 51.8786 7.31 51.7219 7.16C51.5653 7.01 51.4386 6.82333 51.3419 6.6C51.2486 6.37333 51.2019 6.095 51.2019 5.765C51.2019 5.50167 51.2536 5.245 51.3569 4.995C51.4636 4.745 51.6169 4.52333 51.8169 4.33C52.0169 4.13667 52.2636 3.98167 52.5569 3.865C52.8503 3.74833 53.1869 3.69 53.5669 3.69C53.9936 3.69 54.3869 3.75667 54.7469 3.89C55.1069 4.02333 55.4136 4.21 55.6669 4.45L55.3319 5.085ZM60.6437 8.27L59.7637 5.865C59.7204 5.75833 59.6754 5.63167 59.6287 5.485C59.5821 5.33833 59.5354 5.18 59.4887 5.01C59.4454 5.18 59.4004 5.34 59.3537 5.49C59.3071 5.63667 59.2621 5.765 59.2187 5.875L58.3437 8.27H60.6437ZM63.0187 11H61.9787C61.8621 11 61.7671 10.9717 61.6937 10.915C61.6204 10.855 61.5654 10.7817 61.5287 10.695L60.9887 9.22H57.9937L57.4537 10.695C57.4271 10.7717 57.3754 10.8417 57.2987 10.905C57.2221 10.9683 57.1271 11 57.0137 11H55.9637L58.8087 3.77H60.1787L63.0187 11ZM70.1871 7.385C70.1871 7.915 70.0988 8.40167 69.9221 8.845C69.7454 9.28833 69.4971 9.67 69.1771 9.99C68.8571 10.31 68.4721 10.5583 68.0221 10.735C67.5721 10.9117 67.0721 11 66.5221 11H63.7671V3.77H66.5221C67.0721 3.77 67.5721 3.86 68.0221 4.04C68.4721 4.21667 68.8571 4.465 69.1771 4.785C69.4971 5.10167 69.7454 5.48167 69.9221 5.925C70.0988 6.36833 70.1871 6.855 70.1871 7.385ZM68.8071 7.385C68.8071 6.98833 68.7538 6.63333 68.6471 6.32C68.5438 6.00333 68.3921 5.73667 68.1921 5.52C67.9954 5.3 67.7554 5.13167 67.4721 5.015C67.1921 4.89833 66.8754 4.84 66.5221 4.84H65.1171V9.93H66.5221C66.8754 9.93 67.1921 9.87167 67.4721 9.755C67.7554 9.63833 67.9954 9.47167 68.1921 9.255C68.3921 9.035 68.5438 8.76833 68.6471 8.455C68.7538 8.13833 68.8071 7.78167 68.8071 7.385ZM78.2695 7.385C78.2695 7.915 78.1812 8.40667 78.0045 8.86C77.8312 9.31 77.5845 9.7 77.2645 10.03C76.9445 10.36 76.5595 10.6183 76.1095 10.805C75.6595 10.9883 75.1595 11.08 74.6095 11.08C74.0629 11.08 73.5645 10.9883 73.1145 10.805C72.6645 10.6183 72.2779 10.36 71.9545 10.03C71.6345 9.7 71.3862 9.31 71.2095 8.86C71.0329 8.40667 70.9445 7.915 70.9445 7.385C70.9445 6.855 71.0329 6.365 71.2095 5.915C71.3862 5.46167 71.6345 5.07 71.9545 4.74C72.2779 4.41 72.6645 4.15333 73.1145 3.97C73.5645 3.78333 74.0629 3.69 74.6095 3.69C74.9762 3.69 75.3212 3.73333 75.6445 3.82C75.9679 3.90333 76.2645 4.02333 76.5345 4.18C76.8045 4.33333 77.0462 4.52167 77.2595 4.745C77.4762 4.965 77.6595 5.21167 77.8095 5.485C77.9595 5.75833 78.0729 6.055 78.1495 6.375C78.2295 6.695 78.2695 7.03167 78.2695 7.385ZM76.8945 7.385C76.8945 6.98833 76.8412 6.63333 76.7345 6.32C76.6279 6.00333 76.4762 5.735 76.2795 5.515C76.0829 5.295 75.8429 5.12667 75.5595 5.01C75.2795 4.89333 74.9629 4.835 74.6095 4.835C74.2562 4.835 73.9379 4.89333 73.6545 5.01C73.3745 5.12667 73.1345 5.295 72.9345 5.515C72.7379 5.735 72.5862 6.00333 72.4795 6.32C72.3729 6.63333 72.3195 6.98833 72.3195 7.385C72.3195 7.78167 72.3729 8.13833 72.4795 8.455C72.5862 8.76833 72.7379 9.035 72.9345 9.255C73.1345 9.47167 73.3745 9.63833 73.6545 9.755C73.9379 9.87167 74.2562 9.93 74.6095 9.93C74.9629 9.93 75.2795 9.87167 75.5595 9.755C75.8429 9.63833 76.0829 9.47167 76.2795 9.255C76.4762 9.035 76.6279 8.76833 76.7345 8.455C76.8412 8.13833 76.8945 7.78167 76.8945 7.385ZM81.6357 7.21C81.889 7.21 82.109 7.17833 82.2957 7.115C82.4857 7.05167 82.6407 6.965 82.7607 6.855C82.884 6.74167 82.9757 6.60833 83.0357 6.455C83.0957 6.30167 83.1257 6.13333 83.1257 5.95C83.1257 5.58333 83.004 5.30167 82.7607 5.105C82.5207 4.90833 82.1524 4.81 81.6557 4.81H80.7957V7.21H81.6357ZM85.0957 11H83.8807C83.6507 11 83.484 10.91 83.3807 10.73L81.8607 8.415C81.804 8.32833 81.7407 8.26667 81.6707 8.23C81.604 8.19333 81.504 8.175 81.3707 8.175H80.7957V11H79.4507V3.77H81.6557C82.1457 3.77 82.5657 3.82167 82.9157 3.925C83.269 4.025 83.5574 4.16667 83.7807 4.35C84.0074 4.53333 84.174 4.75333 84.2807 5.01C84.3874 5.26333 84.4407 5.54333 84.4407 5.85C84.4407 6.09333 84.404 6.32333 84.3307 6.54C84.2607 6.75667 84.1574 6.95333 84.0207 7.13C83.8874 7.30667 83.7207 7.46167 83.5207 7.595C83.324 7.72833 83.099 7.83333 82.8457 7.91C82.9324 7.96 83.0124 8.02 83.0857 8.09C83.159 8.15667 83.2257 8.23667 83.2857 8.33L85.0957 11Z" fill="#FFB739"/>
</svg>
