<svg width="21" height="22" viewBox="0 0 21 22" fill="none" xmlns="http://www.w3.org/2000/svg">
<path d="M19.5599 9.74055L18.1999 8.16055C17.9399 7.86055 17.7299 7.30055 17.7299 6.90055V5.20055C17.7299 4.14055 16.8599 3.27055 15.7999 3.27055H14.0999C13.7099 3.27055 13.1399 3.06055 12.8399 2.80055L11.2599 1.44055C10.5699 0.850547 9.43989 0.850547 8.73988 1.44055L7.16988 2.81055C6.86988 3.06055 6.29988 3.27055 5.90988 3.27055H4.17988C3.11988 3.27055 2.24988 4.14055 2.24988 5.20055V6.91055C2.24988 7.30055 2.03988 7.86055 1.78988 8.16055L0.439883 9.75055C-0.140117 10.4405 -0.140117 11.5605 0.439883 12.2505L1.78988 13.8405C2.03988 14.1405 2.24988 14.7005 2.24988 15.0905V16.8005C2.24988 17.8605 3.11988 18.7305 4.17988 18.7305H5.90988C6.29988 18.7305 6.86988 18.9405 7.16988 19.2006L8.74988 20.5605C9.43989 21.1505 10.5699 21.1505 11.2699 20.5605L12.8499 19.2006C13.1499 18.9405 13.7099 18.7305 14.1099 18.7305H15.8099C16.8699 18.7305 17.7399 17.8605 17.7399 16.8005V15.1005C17.7399 14.7105 17.9499 14.1405 18.2099 13.8405L19.5699 12.2605C20.1499 11.5705 20.1499 10.4305 19.5599 9.74055ZM14.1599 9.11055L9.32988 13.9405C9.18926 14.081 8.99864 14.1599 8.79988 14.1599C8.60113 14.1599 8.41051 14.081 8.26989 13.9405L5.84988 11.5205C5.55988 11.2305 5.55988 10.7505 5.84988 10.4605C6.13988 10.1705 6.61988 10.1705 6.90988 10.4605L8.79988 12.3505L13.0999 8.05055C13.3899 7.76055 13.8699 7.76055 14.1599 8.05055C14.4499 8.34055 14.4499 8.82055 14.1599 9.11055Z" fill="url(#paint0_linear_67_1426)"/>
<defs>
<linearGradient id="paint0_linear_67_1426" x1="10.0039" y1="0.998547" x2="10.0039" y2="21.0035" gradientUnits="userSpaceOnUse">
<stop stop-color="#138BD7"/>
<stop offset="1" stop-color="#62AAFB"/>
</linearGradient>
</defs>
</svg>
