<svg width="17" height="17" viewBox="0 0 17 17" fill="none" xmlns="http://www.w3.org/2000/svg">
<path d="M8.49999 16.1144C4.29957 16.1144 0.885406 12.7003 0.885406 8.49984C0.885406 4.29942 4.29957 0.885254 8.49999 0.885254C12.7004 0.885254 16.1146 4.29942 16.1146 8.49984C16.1146 12.7003 12.7004 16.1144 8.49999 16.1144ZM8.49999 1.94775C4.88749 1.94775 1.94791 4.88734 1.94791 8.49984C1.94791 12.1123 4.88749 15.0519 8.49999 15.0519C12.1125 15.0519 15.0521 12.1123 15.0521 8.49984C15.0521 4.88734 12.1125 1.94775 8.49999 1.94775Z" fill="#363853"/>
<path d="M11.1279 11.284C11.0358 11.284 10.9437 11.2627 10.8587 11.2061L8.66291 9.89566C8.11749 9.56982 7.71375 8.85441 7.71375 8.22399V5.31982C7.71375 5.02941 7.95458 4.78857 8.245 4.78857C8.53541 4.78857 8.77625 5.02941 8.77625 5.31982V8.22399C8.77625 8.47899 8.98874 8.85441 9.20833 8.98191L11.4042 10.2923C11.6592 10.4411 11.7371 10.7669 11.5883 11.0219C11.4821 11.1919 11.305 11.284 11.1279 11.284Z" fill="#363853"/>
</svg>
