<svg width="17" height="17" viewBox="0 0 17 17" fill="none" xmlns="http://www.w3.org/2000/svg">
<path fill-rule="evenodd" clip-rule="evenodd" d="M7.94139 7.94182L7.19976 10.3126L9.56985 9.57028L10.3122 7.19948L7.94139 7.94182ZM6.38943 11.6535C6.2506 11.6535 6.1146 11.5989 6.01331 11.4984C5.87376 11.3581 5.82276 11.152 5.88226 10.9643L7.01064 7.35957C7.06235 7.1924 7.19268 7.06278 7.35843 7.01107L10.9631 5.88269C11.1523 5.82249 11.3577 5.87419 11.4979 6.01374C11.6375 6.15399 11.6885 6.36011 11.629 6.54782L10.5013 10.1525C10.4496 10.319 10.3186 10.4493 10.1528 10.501L6.5481 11.6294C6.49568 11.6457 6.44185 11.6535 6.38943 11.6535Z" fill="#363853"/>
<mask id="mask0_586_1891" style="mask-type:luminance" maskUnits="userSpaceOnUse" x="1" y="1" width="16" height="16">
<path fill-rule="evenodd" clip-rule="evenodd" d="M1.41666 1.4165H16.0946V16.0944H1.41666V1.4165Z" fill="white"/>
</mask>
<g mask="url(#mask0_586_1891)">
<path fill-rule="evenodd" clip-rule="evenodd" d="M8.75555 2.479C5.29463 2.479 2.479 5.29534 2.479 8.75555C2.479 12.2165 5.29463 15.0321 8.75555 15.0321C12.2165 15.0321 15.0321 12.2165 15.0321 8.75555C15.0321 5.29534 12.2165 2.479 8.75555 2.479ZM8.75555 16.0946C4.70884 16.0946 1.4165 12.8023 1.4165 8.75555C1.4165 4.70884 4.70884 1.4165 8.75555 1.4165C12.8023 1.4165 16.0946 4.70884 16.0946 8.75555C16.0946 12.8023 12.8023 16.0946 8.75555 16.0946Z" fill="#363853"/>
</g>
</svg>
