<svg width="11" height="12" viewBox="0 0 11 12" fill="none" xmlns="http://www.w3.org/2000/svg">
<path fill-rule="evenodd" clip-rule="evenodd" d="M4.60554 5.32331L4.08204 6.98711L5.75504 6.46614L6.27904 4.80234L4.60554 5.32331ZM3.51004 7.92812C3.41204 7.92812 3.31604 7.88984 3.24454 7.81925C3.14604 7.72083 3.11004 7.57617 3.15204 7.44444L3.94854 4.91469C3.98504 4.79737 4.07704 4.7064 4.19404 4.67012L6.73854 3.87823C6.87204 3.83598 7.01704 3.87227 7.11604 3.9702C7.21454 4.06862 7.25054 4.21328 7.20854 4.34501L6.41254 6.87476C6.37604 6.99158 6.28354 7.08305 6.16654 7.11933L3.62204 7.91122C3.58504 7.92265 3.54704 7.92812 3.51004 7.92812Z" fill="#363853"/>
<mask id="mask0_1174_148" style="mask-type:luminance" maskUnits="userSpaceOnUse" x="0" y="0" width="11" height="12">
<path fill-rule="evenodd" clip-rule="evenodd" d="M0 0.744141H10.3609V11.0449H0V0.744141Z" fill="white"/>
</mask>
<g mask="url(#mask0_1174_148)">
<path fill-rule="evenodd" clip-rule="evenodd" d="M5.1805 1.48979C2.7375 1.48979 0.75 3.46627 0.75 5.89461C0.75 8.32345 2.7375 10.2994 5.1805 10.2994C7.6235 10.2994 9.611 8.32345 9.611 5.89461C9.611 3.46627 7.6235 1.48979 5.1805 1.48979ZM5.1805 11.0451C2.324 11.0451 0 8.73455 0 5.89461C0 3.05467 2.324 0.744141 5.1805 0.744141C8.037 0.744141 10.361 3.05467 10.361 5.89461C10.361 8.73455 8.037 11.0451 5.1805 11.0451Z" fill="#363853"/>
</g>
</svg>
