<svg width="30" height="30" viewBox="0 0 30 30" fill="none" xmlns="http://www.w3.org/2000/svg">
<circle cx="15" cy="15" r="15" fill="#FFEFEF"/>
<path d="M7.5 10.1105C7.08579 10.1105 6.75 10.4463 6.75 10.8605C6.75 11.2747 7.08579 11.6105 7.5 11.6105V10.1105ZM22.5 11.6105C22.9142 11.6105 23.25 11.2747 23.25 10.8605C23.25 10.4463 22.9142 10.1105 22.5 10.1105V11.6105ZM9.16667 10.8605V10.1105H8.41667V10.8605H9.16667ZM20.8333 10.8605H21.5833V10.1105H20.8333V10.8605ZM20.2849 19.0253L21.0054 19.2333L20.2849 19.0253ZM16.4366 22.3795L16.5616 23.119L16.4366 22.3795ZM13.5633 22.3795L13.6883 21.6399L13.6883 21.6399L13.5633 22.3795ZM13.4319 22.3572L13.3069 23.0968L13.3069 23.0968L13.4319 22.3572ZM9.71512 19.0252L8.99455 19.2332L9.71512 19.0252ZM16.5681 22.3572L16.4431 21.6177L16.5681 22.3572ZM11.5355 9.57449L12.2162 9.88917L11.5355 9.57449ZM12.3483 8.48427L11.8478 7.92572L11.8478 7.92572L12.3483 8.48427ZM13.5649 7.7558L13.8259 8.45893L13.5649 7.7558ZM16.4351 7.7558L16.6961 7.05268V7.05268L16.4351 7.7558ZM18.4645 9.57449L19.1453 9.25981L19.1453 9.25981L18.4645 9.57449ZM7.5 11.6105H22.5V10.1105H7.5V11.6105ZM16.4431 21.6177L16.3117 21.6399L16.5616 23.119L16.6931 23.0968L16.4431 21.6177ZM13.6883 21.6399L13.5569 21.6177L13.3069 23.0968L13.4384 23.119L13.6883 21.6399ZM20.0833 10.8605V15.1465H21.5833V10.8605H20.0833ZM9.91667 15.1465V10.8605H8.41667V15.1465H9.91667ZM20.0833 15.1465C20.0833 16.3887 19.9086 17.6246 19.5643 18.8172L21.0054 19.2333C21.3888 17.9053 21.5833 16.5294 21.5833 15.1465H20.0833ZM16.3117 21.6399C15.4433 21.7867 14.5567 21.7867 13.6883 21.6399L13.4384 23.119C14.4722 23.2937 15.5277 23.2937 16.5616 23.119L16.3117 21.6399ZM13.5569 21.6177C12.073 21.367 10.8582 20.2808 10.4357 18.8172L8.99455 19.2332C9.57541 21.2454 11.2494 22.7491 13.3069 23.0968L13.5569 21.6177ZM10.4357 18.8172C10.0914 17.6246 9.91667 16.3887 9.91667 15.1465H8.41667C8.41667 16.5294 8.61122 17.9053 8.99455 19.2332L10.4357 18.8172ZM16.6931 23.0968C18.7506 22.7491 20.4246 21.2455 21.0054 19.2333L19.5643 18.8172C19.1418 20.2808 17.927 21.367 16.4431 21.6177L16.6931 23.0968ZM12 10.8605C12 10.5298 12.0725 10.2001 12.2162 9.88917L10.8547 9.25981C10.6214 9.76435 10.5 10.3085 10.5 10.8605H12ZM12.2162 9.88917C12.3601 9.57797 12.5735 9.28955 12.8489 9.04281L11.8478 7.92572C11.4267 8.30308 11.0877 8.75558 10.8547 9.25981L12.2162 9.88917ZM12.8489 9.04281C13.1244 8.79593 13.4558 8.59633 13.8259 8.45893L13.3039 7.05268C12.7642 7.25304 12.2688 7.5485 11.8478 7.92572L12.8489 9.04281ZM13.8259 8.45893C14.1961 8.32151 14.5953 8.25 15 8.25V6.75C14.4198 6.75 13.8437 6.85233 13.3039 7.05268L13.8259 8.45893ZM15 8.25C15.4047 8.25 15.8039 8.32151 16.1741 8.45893L16.6961 7.05268C16.1563 6.85233 15.5802 6.75 15 6.75V8.25ZM16.1741 8.45893C16.5442 8.59633 16.8756 8.79593 17.1511 9.04281L18.1522 7.92572C17.7312 7.5485 17.2358 7.25304 16.6961 7.05268L16.1741 8.45893ZM17.1511 9.04281C17.4265 9.28955 17.6399 9.57798 17.7838 9.88917L19.1453 9.25981C18.9123 8.75558 18.5733 8.30308 18.1522 7.92572L17.1511 9.04281ZM17.7838 9.88917C17.9275 10.2001 18 10.5298 18 10.8605H19.5C19.5 10.3085 19.3786 9.76435 19.1453 9.25981L17.7838 9.88917ZM9.16667 11.6105H20.8333V10.1105H9.16667V11.6105Z" fill="#D91C3F"/>
<path d="M13.333 15V18.3333M16.6663 15V18.3333" stroke="#D91C3F" stroke-width="1.5" stroke-linecap="round"/>
</svg>
