<svg width="20" height="20" viewBox="0 0 15 14" fill="none" xmlns="http://www.w3.org/2000/svg">
<g id="Icons">
<g id="Discovery">
<path id="Fill 1" fill-rule="evenodd" clip-rule="evenodd" d="M6.97762 6.53989L6.36687 8.49231L8.31871 7.88097L8.93004 5.92856L6.97762 6.53989ZM5.69954 9.59656C5.58521 9.59656 5.47321 9.55164 5.38979 9.46881C5.27488 9.35331 5.23288 9.18356 5.28188 9.02897L6.21113 6.06039C6.25371 5.92272 6.36104 5.81597 6.49754 5.77339L9.46613 4.84414C9.62187 4.79456 9.79104 4.83714 9.90654 4.95206C10.0215 5.06756 10.0635 5.23731 10.0145 5.39189L9.08579 8.36047C9.04321 8.49756 8.93529 8.60489 8.79879 8.64747L5.83021 9.57672C5.78704 9.59014 5.74271 9.59656 5.69954 9.59656Z" fill="#505050"/>
<g id="Group 5">
<mask id="mask0_562_5014" style="mask-type:luminance" maskUnits="userSpaceOnUse" x="1" y="1" width="13" height="13">
<path id="Clip 4" fill-rule="evenodd" clip-rule="evenodd" d="M1.60449 1.1665H13.6922V13.2542H1.60449V1.1665Z" fill="white"/>
</mask>
<g mask="url(#mask0_562_5014)">
<path id="Fill 3" fill-rule="evenodd" clip-rule="evenodd" d="M7.64841 2.0415C4.79824 2.0415 2.47949 4.36084 2.47949 7.21042C2.47949 10.0606 4.79824 12.3793 7.64841 12.3793C10.4986 12.3793 12.8173 10.0606 12.8173 7.21042C12.8173 4.36084 10.4986 2.0415 7.64841 2.0415ZM7.64841 13.2543C4.31583 13.2543 1.60449 10.543 1.60449 7.21042C1.60449 3.87784 4.31583 1.1665 7.64841 1.1665C10.981 1.1665 13.6923 3.87784 13.6923 7.21042C13.6923 10.543 10.981 13.2543 7.64841 13.2543Z" fill="#505050"/>
</g>
</g>
</g>
</g>
</svg>
