<svg width="62" height="52" viewBox="0 0 62 52" fill="none" xmlns="http://www.w3.org/2000/svg">
<path d="M43.5075 50.75H18.7955C17.0415 50.75 15.4158 49.8309 14.5114 48.328L2.55136 28.453C1.59687 26.8669 1.59687 24.8831 2.55136 23.297L14.5114 3.42197C15.4158 1.91909 17.0415 1 18.7955 1H43.5075C45.2615 1 46.8873 1.91909 47.7916 3.42197L59.7517 23.297C60.7062 24.8831 60.7062 26.8669 59.7517 28.453L47.7916 48.328C46.8873 49.8309 45.2615 50.75 43.5075 50.75Z" stroke="url(#paint0_linear_609_12408)" stroke-width="2"/>
<path d="M31.0271 37.3736C27.9205 37.3736 24.8138 36.8802 21.8671 35.8936C20.7471 35.5069 19.8938 34.7202 19.5205 33.6936C19.1338 32.6669 19.2671 31.5336 19.8805 30.5202L21.4138 27.9736C21.7338 27.4402 22.0271 26.3736 22.0271 25.7469V21.8936C22.0271 16.9336 26.0671 12.8936 31.0271 12.8936C35.9871 12.8936 40.0271 16.9336 40.0271 21.8936V25.7469C40.0271 26.3602 40.3205 27.4402 40.6405 27.9869L42.1605 30.5202C42.7338 31.4802 42.8405 32.6402 42.4538 33.6936C42.0671 34.7469 41.2271 35.5469 40.1738 35.8936C37.2405 36.8802 34.1338 37.3736 31.0271 37.3736ZM31.0271 14.8936C27.1738 14.8936 24.0271 18.0269 24.0271 21.8936V25.7469C24.0271 26.7202 23.6271 28.1602 23.1338 29.0002L21.6005 31.5469C21.3071 32.0402 21.2271 32.5602 21.4005 33.0002C21.5605 33.4536 21.9605 33.8002 22.5071 33.9869C28.0805 35.8536 33.9871 35.8536 39.5605 33.9869C40.0405 33.8269 40.4138 33.4669 40.5871 32.9869C40.7605 32.5069 40.7205 31.9869 40.4538 31.5469L38.9205 29.0002C38.4138 28.1336 38.0271 26.7069 38.0271 25.7336V21.8936C38.0271 18.0269 34.8938 14.8936 31.0271 14.8936Z" fill="#8B959A"/>
<path d="M33.5071 15.2532C33.4138 15.2532 33.3205 15.2399 33.2271 15.2132C32.8405 15.1066 32.4671 15.0266 32.1071 14.9732C30.9738 14.8266 29.8805 14.9066 28.8538 15.2132C28.4805 15.3332 28.0805 15.2132 27.8271 14.9332C27.5738 14.6532 27.4938 14.2532 27.6405 13.8932C28.1871 12.4932 29.5205 11.5732 31.0405 11.5732C32.5605 11.5732 33.8938 12.4799 34.4405 13.8932C34.5738 14.2532 34.5071 14.6532 34.2538 14.9332C34.0538 15.1466 33.7738 15.2532 33.5071 15.2532Z" fill="#8B959A"/>
<path d="M31.0264 40.4136C29.7064 40.4136 28.4264 39.8802 27.493 38.9469C26.5597 38.0136 26.0264 36.7336 26.0264 35.4136H28.0264C28.0264 36.2002 28.3464 36.9736 28.9064 37.5336C29.4664 38.0936 30.2397 38.4136 31.0264 38.4136C32.6797 38.4136 34.0264 37.0669 34.0264 35.4136H36.0264C36.0264 38.1736 33.7864 40.4136 31.0264 40.4136Z" fill="#8B959A"/>
<defs>
<linearGradient id="paint0_linear_609_12408" x1="31.1515" y1="1" x2="31.1515" y2="50.75" gradientUnits="userSpaceOnUse">
<stop stop-color="#0DBCEC"/>
<stop offset="1" stop-color="#FFC056"/>
</linearGradient>
</defs>
</svg>
