<svg width="30" height="30" viewBox="0 0 30 30" fill="none" xmlns="http://www.w3.org/2000/svg">
<circle opacity="0.5" cx="15" cy="15" r="15" fill="url(#paint0_linear_38_456)"/>
<path d="M17.5832 9.99984C17.5832 11.4266 16.4266 12.5832 14.9998 12.5832V14.0832C17.255 14.0832 19.0832 12.255 19.0832 9.99984H17.5832ZM14.9998 12.5832C13.5731 12.5832 12.4165 11.4266 12.4165 9.99984H10.9165C10.9165 12.255 12.7447 14.0832 14.9998 14.0832V12.5832ZM12.4165 9.99984C12.4165 8.5731 13.5731 7.4165 14.9998 7.4165V5.9165C12.7447 5.9165 10.9165 7.74467 10.9165 9.99984H12.4165ZM14.9998 7.4165C16.4266 7.4165 17.5832 8.5731 17.5832 9.99984H19.0832C19.0832 7.74467 17.255 5.9165 14.9998 5.9165V7.4165ZM12.4998 16.5832H17.4998V15.0832H12.4998V16.5832ZM17.4998 21.7498H12.4998V23.2498H17.4998V21.7498ZM12.4998 21.7498C11.0731 21.7498 9.9165 20.5932 9.9165 19.1665H8.4165C8.4165 21.4217 10.2447 23.2498 12.4998 23.2498V21.7498ZM20.0832 19.1665C20.0832 20.5932 18.9266 21.7498 17.4998 21.7498V23.2498C19.755 23.2498 21.5832 21.4217 21.5832 19.1665H20.0832ZM17.4998 16.5832C18.9266 16.5832 20.0832 17.7398 20.0832 19.1665H21.5832C21.5832 16.9113 19.755 15.0832 17.4998 15.0832V16.5832ZM12.4998 15.0832C10.2447 15.0832 8.4165 16.9113 8.4165 19.1665H9.9165C9.9165 17.7398 11.0731 16.5832 12.4998 16.5832V15.0832Z" fill="#363853"/>
<defs>
<linearGradient id="paint0_linear_38_456" x1="30" y1="15" x2="0.061767" y2="15" gradientUnits="userSpaceOnUse">
<stop stop-color="#DAE1AE"/>
<stop offset="1" stop-color="#ABD5B4"/>
</linearGradient>
</defs>
</svg>
