<svg width="12" height="12" viewBox="0 0 12 12" fill="none" xmlns="http://www.w3.org/2000/svg">
<path d="M6.49999 2.5C6.77614 2.5 6.99999 2.27614 6.99999 2C6.99999 1.72386 6.77614 1.5 6.49999 1.5V2.5ZM11 6.13193C11 5.85579 10.7761 5.63193 10.5 5.63193C10.2239 5.63193 10 5.85579 10 6.13193H11ZM4.41377 10.3982L4.28897 10.8823H4.28897L4.41377 10.3982ZM2.10183 8.08623L2.586 7.96142L2.10183 8.08623ZM8.08623 10.3982L8.21103 10.8823L8.08623 10.3982ZM10.3982 8.08623L10.8823 8.21103L10.3982 8.08623ZM2.10183 4.41377L2.586 4.53858L2.10183 4.41377ZM4.41377 2.10183L4.53858 2.586L4.41377 2.10183ZM8.31596 1.5C8.03982 1.5 7.81596 1.72386 7.81596 2C7.81596 2.27614 8.03982 2.5 8.31596 2.5V1.5ZM10.5 2H11C11 1.72386 10.7761 1.5 10.5 1.5V2ZM10 4.06597C10 4.34211 10.2239 4.56597 10.5 4.56597C10.7761 4.56597 11 4.34211 11 4.06597H10ZM5.78833 5.7687C5.58772 5.95846 5.57893 6.27492 5.76869 6.47553C5.95846 6.67614 6.27492 6.68493 6.47553 6.49517L5.78833 5.7687ZM6.25 2.5H6.49999V1.5H6.25V2.5ZM10 6.13193V6.25H11V6.13193H10ZM6.25 10C5.25821 10 4.85672 9.99601 4.53858 9.914L4.28897 10.8823C4.76086 11.004 5.32018 11 6.25 11V10ZM1.5 6.25C1.5 7.17982 1.49601 7.73914 1.61765 8.21103L2.586 7.96142C2.50399 7.64328 2.5 7.24179 2.5 6.25H1.5ZM4.53858 9.914C3.58081 9.66711 2.83289 8.91919 2.586 7.96142L1.61765 8.21103C1.95543 9.52136 2.97864 10.5446 4.28897 10.8823L4.53858 9.914ZM6.25 11C7.17982 11 7.73914 11.004 8.21103 10.8823L7.96142 9.914C7.64328 9.99601 7.24179 10 6.25 10V11ZM10 6.25C10 7.24179 9.99601 7.64328 9.914 7.96142L10.8823 8.21103C11.004 7.73914 11 7.17982 11 6.25H10ZM8.21103 10.8823C9.52136 10.5446 10.5446 9.52136 10.8823 8.21103L9.914 7.96142C9.66711 8.91919 8.91919 9.66711 7.96142 9.914L8.21103 10.8823ZM2.5 6.25C2.5 5.25821 2.50399 4.85672 2.586 4.53858L1.61765 4.28897C1.49601 4.76086 1.5 5.32018 1.5 6.25H2.5ZM6.25 1.5C5.32018 1.5 4.76086 1.49601 4.28897 1.61765L4.53858 2.586C4.85672 2.50399 5.25821 2.5 6.25 2.5V1.5ZM2.586 4.53858C2.83289 3.58081 3.58081 2.83289 4.53858 2.586L4.28897 1.61765C2.97864 1.95543 1.95543 2.97864 1.61765 4.28897L2.586 4.53858ZM8.31596 2.5H10.5V1.5H8.31596V2.5ZM10 2V4.06597H11V2H10ZM10.1564 1.63676L5.78833 5.7687L6.47553 6.49517L10.8436 2.36324L10.1564 1.63676Z" fill="#363853"/>
</svg>
